<svg width="18" height="18" viewBox="0 0 18 18" fill="none" xmlns="http://www.w3.org/2000/svg">
<path fill-rule="evenodd" clip-rule="evenodd" d="M11.435 4.34316C13.3877 6.29578 13.3877 9.4616 11.435 11.4142C9.48241 13.3668 6.31658 13.3668 4.36396 11.4142C2.41134 9.46161 2.41134 6.29578 4.36396 4.34316C6.31658 2.39054 9.48241 2.39054 11.435 4.34316ZM13.5062 12.0712C15.5618 9.32938 15.3428 5.42254 12.8492 2.92895C10.1156 0.195275 5.68342 0.195275 2.94975 2.92895C0.216077 5.66262 0.216077 10.0948 2.94975 12.8284C5.44334 15.322 9.35019 15.541 12.092 13.4854L15.6777 17.0711C16.0682 17.4616 16.7014 17.4616 17.0919 17.0711C17.4824 16.6806 17.4824 16.0474 17.0919 15.6569L13.5062 12.0712Z" fill="#4F5261"/>
</svg>
