<svg width="31" height="23" viewBox="0 0 31 23" fill="none" xmlns="http://www.w3.org/2000/svg">
<path d="M27.8615 2.13175C29.5782 3.95508 30.4999 6.00008 30.4999 9.31508C30.4999 15.1484 26.4049 20.3768 20.4499 22.9618L18.9615 20.6651C24.5199 17.6584 25.6065 13.7568 26.0399 11.2968C25.1449 11.7601 23.9732 11.9218 22.8249 11.8151C19.8182 11.5367 17.4482 9.06842 17.4482 6.00008C17.4482 4.45299 18.0628 2.96925 19.1567 1.87529C20.2507 0.78133 21.7344 0.166748 23.2815 0.166748C25.0699 0.166748 26.7799 0.983415 27.8615 2.13175ZM11.1949 2.13175C12.9115 3.95508 13.8332 6.00008 13.8332 9.31508C13.8332 15.1484 9.7382 20.3768 3.7832 22.9618L2.29487 20.6651C7.8532 17.6584 8.93987 13.7568 9.3732 11.2968C8.4782 11.7601 7.30654 11.9218 6.1582 11.8151C3.15154 11.5367 0.783203 9.06842 0.783203 6.00008C0.783203 4.45299 1.39778 2.96925 2.49175 1.87529C3.58571 0.78133 5.06944 0.166748 6.61654 0.166748C8.40487 0.166748 10.1149 0.983415 11.1965 2.13175H11.1949Z" fill="#F59E00"/>
</svg>
