<svg width="113" height="18" viewBox="0 0 113 18" fill="none" xmlns="http://www.w3.org/2000/svg">
<path d="M23.9009 0.650698L19.2209 17.4027H15.2609L12.1169 5.4747L8.82886 17.4027L4.89286 17.4267L0.380859 0.650698C0.380859 0.650698 2.61642 0.311822 3.98086 0.650698C9.03638 1.9063 1.7266 13.4864 6.93286 13.6587C12.1814 13.8324 5.24816 1.93193 10.3409 0.650698C11.7588 0.293968 12.6682 0.289046 14.0849 0.650698C19.1287 1.93829 12.0961 13.678 17.3009 13.5867C22.4838 13.4957 15.2487 1.91136 20.2769 0.650698C21.6496 0.306516 23.9009 0.650698 23.9009 0.650698Z" fill="white"/>
<path d="M24.7508 10.7067C24.7508 9.3627 25.0148 8.1707 25.5428 7.1307C26.0868 6.0907 26.8148 5.2907 27.7268 4.7307C28.6548 4.1707 29.6868 3.8907 30.8228 3.8907C31.8148 3.8907 32.6788 4.0907 33.4148 4.4907C34.1668 4.8907 34.7668 5.3947 35.2148 6.0027C35.2148 6.0027 34.8529 4.75265 35.2148 4.1067C35.8608 2.95379 38.5988 4.1067 38.5988 4.1067V17.4027H35.2148V15.4587C34.7828 16.0827 34.1828 16.6027 33.4148 17.0187C32.6628 17.4187 31.7908 17.6187 30.7988 17.6187C29.6788 17.6187 28.6548 17.3307 27.7268 16.7547C26.8148 16.1787 26.0868 15.3707 25.5428 14.3307C25.0148 13.2747 24.7508 12.0667 24.7508 10.7067ZM35.2148 10.7547C35.2148 10.7547 35.0548 9.2427 34.7348 8.6667C34.4148 8.0747 33.9828 7.6267 33.4388 7.3227C32.8948 7.0027 32.3108 6.8427 31.6868 6.8427C31.0628 6.8427 30.4868 6.9947 29.9588 7.2987C29.4308 7.6027 28.9988 8.0507 28.6628 8.6427C28.3428 9.2187 28.1828 10.7067 28.1828 10.7067C28.1828 10.7067 28.3428 12.2107 28.6628 12.8187C28.9988 13.4107 29.4308 13.8667 29.9588 14.1867C30.5028 14.5067 31.0788 14.6667 31.6868 14.6667C32.3108 14.6667 32.8948 14.5147 33.4388 14.2107C33.9828 13.8907 34.4148 13.4427 34.7348 12.8667C35.0548 12.2747 35.2148 10.7547 35.2148 10.7547Z" fill="white"/>
<path d="M46.9444 14.3067C51.1383 14.3067 46.2726 5.26151 50.3044 4.1067C51.647 3.72216 53.8804 4.1067 53.8804 4.1067L48.9604 17.4027H44.8804L39.9844 4.1067C39.9844 4.1067 42.2335 3.71741 43.5844 4.1067C47.6143 5.26799 42.7505 14.3067 46.9444 14.3067Z" fill="white"/>
<path d="M67.6476 10.4667C67.6476 10.9467 67.6156 11.3787 67.5516 11.7627C67.4876 12.1467 57.7516 10.8027 57.8316 11.7627C57.9116 12.7227 58.2476 13.4747 58.8396 14.0187C59.4316 14.5627 60.1596 14.8347 61.0236 14.8347C62.2716 14.8347 63.1596 14.2987 63.6876 13.2267C64.2156 12.1547 67.3116 13.2267 67.3116 13.2267C66.9276 14.5067 66.1916 15.5627 65.1036 16.3947C64.0156 17.2107 62.6796 17.6187 61.0956 17.6187C59.8156 17.6187 58.6636 17.3387 57.6396 16.7787C56.6316 16.2027 55.8396 15.3947 55.2636 14.3547C54.7036 13.3147 54.4236 12.1147 54.4236 10.7547C54.4236 9.3787 54.7036 8.1707 55.2636 7.1307C55.8236 6.0907 56.6076 5.2907 57.6156 4.7307C58.6236 4.1707 59.7836 3.8907 61.0956 3.8907C62.3596 3.8907 63.4876 4.1627 64.4796 4.7067C65.4876 5.2507 66.2636 6.0267 66.8076 7.0347C67.3676 8.0267 67.6476 9.1707 67.6476 10.4667ZM64.1676 9.5067C64.1516 8.6427 63.8396 7.9547 63.2316 7.4427C62.6236 6.9147 61.8796 6.6507 60.9996 6.6507C60.1676 6.6507 59.4636 6.9067 58.8876 7.4187C58.3276 7.9147 57.9836 8.6107 57.8556 9.5067C57.8556 9.5067 64.1836 10.3707 64.1676 9.5067Z" fill="white"/>
<path d="M74.7081 17.6187C73.6201 17.6187 72.6441 17.4267 71.7801 17.0427C70.9161 16.6427 70.2281 16.1067 69.7161 15.4347C69.2201 14.7627 68.9481 14.0187 68.9001 13.2027C68.8521 12.3867 72.2201 12.6907 72.2841 13.2027C72.3481 13.7147 72.5961 14.1387 73.0281 14.4747C73.4761 14.8107 74.6841 14.9787 74.6841 14.9787C74.6841 14.9787 75.8201 14.8507 76.1721 14.5947C76.5401 14.3387 76.7241 14.0107 76.7241 13.6107C76.7241 13.1787 76.0521 12.6507 76.0521 12.6507L73.9641 11.9307C73.9641 11.9307 72.1561 11.4427 71.5161 11.1867C70.8921 10.9307 70.3481 10.5387 69.8841 10.0107C69.4361 9.4827 69.2121 8.7707 69.2121 7.8747C69.2121 7.1387 69.4201 6.4667 69.8361 5.8587C70.2681 5.2507 70.8761 4.7707 71.6601 4.4187C72.4601 4.0667 73.3961 3.8907 74.4681 3.8907C76.0521 3.8907 77.3161 4.2907 78.2601 5.0907C79.2041 5.8747 79.7241 6.9387 79.8201 8.2827C79.9161 9.6267 76.6521 8.8107 76.6041 8.2827C76.5561 7.7547 76.3321 7.3387 75.9321 7.0347C75.5481 6.7147 74.3721 6.5547 74.3721 6.5547C74.3721 6.5547 73.2921 6.6667 72.9561 6.8907C72.6361 7.1147 72.4761 7.4267 72.4761 7.8267C72.4761 8.2747 72.7001 8.6187 73.1481 8.8587C73.5961 9.0827 75.2361 9.5547 75.2361 9.5547C75.2361 9.5547 76.9881 10.0427 77.6121 10.2987C78.2361 10.5547 78.7721 10.9547 79.2201 11.4987C79.6841 12.0267 79.9241 12.7307 79.9401 13.6107C79.9401 14.3787 79.7241 15.0667 79.2921 15.6747C78.8761 16.2827 78.2681 16.7627 77.4681 17.1147C76.6841 17.4507 75.7641 17.6187 74.7081 17.6187Z" fill="white"/>
<path d="M81.4022 9.0027C81.4022 7.22507 81.7702 5.8827 82.5062 4.5867C83.2582 3.2747 84.2742 2.2587 85.5542 1.5387C86.8502 0.802698 88.2982 0.434698 89.8982 0.434698C91.7702 0.434698 93.4102 0.914698 94.8182 1.8747C96.2262 2.8347 97.2102 4.1627 97.7702 5.8587C98.3302 7.5547 94.2902 6.6587 93.9062 5.8587C93.5222 5.0587 92.9782 4.4587 92.2742 4.0587C91.5862 3.6587 90.7862 3.4587 89.8742 3.4587C88.8982 3.4587 88.0262 3.6907 87.2582 4.1547C86.5062 4.6027 85.9142 5.2427 85.4822 6.0747C85.0662 6.9067 84.8582 9.0027 84.8582 9.0027C84.8582 9.0027 85.0662 11.0827 85.4822 11.9307C85.9142 12.7627 86.5062 13.4107 87.2582 13.8747C88.0262 14.3227 88.8982 14.5467 89.8742 14.5467C90.7862 14.5467 91.5862 14.3467 92.2742 13.9467C92.9782 13.5307 93.5222 12.9227 93.9062 12.1227C94.2902 11.3227 98.3302 10.4107 97.7702 12.1227C97.2102 13.8347 96.2262 15.1707 94.8182 16.1307C93.4262 17.0747 91.7862 17.5467 89.8982 17.5467C88.2982 17.5467 86.8502 17.1867 85.5542 16.4667C84.2742 15.7307 83.2582 14.7147 82.5062 13.4187C81.7702 12.1227 81.4022 10.7803 81.4022 9.0027Z" fill="white"/>
<path d="M106.064 17.6187C104.784 17.6187 103.632 17.3387 102.608 16.7787C101.584 16.2027 100.776 15.3947 100.184 14.3547C99.6081 13.3147 99.3201 12.1147 99.3201 10.7547C99.3201 9.3947 99.6161 8.1947 100.208 7.1547C100.816 6.1147 101.64 5.3147 102.68 4.7547C103.72 4.1787 104.88 3.8907 106.16 3.8907C107.44 3.8907 108.6 4.1787 109.64 4.7547C110.68 5.3147 111.496 6.1147 112.088 7.1547C112.696 8.1947 113 9.3947 113 10.7547C113 12.1147 112.688 13.3147 112.064 14.3547C111.456 15.3947 110.624 16.2027 109.568 16.7787C108.528 17.3387 107.36 17.6187 106.064 17.6187ZM106.064 14.6907C106.064 14.6907 107.24 14.5467 107.768 14.2587C108.312 13.9547 108.744 13.5067 109.064 12.9147C109.384 12.3227 109.544 10.7547 109.544 10.7547C109.544 10.7547 109.208 8.5227 108.536 7.8507C107.88 7.1627 106.112 6.8187 106.112 6.8187C106.112 6.8187 104.344 7.1627 103.688 7.8507C103.048 8.5227 102.728 10.7547 102.728 10.7547C102.728 10.7547 103.04 12.9947 103.664 13.6827C104.304 14.3547 106.064 14.6907 106.064 14.6907Z" fill="white"/>
</svg>
